M48
;DRILL file {KiCad (5.0.1)-4} date 10-Dec-18 10:10:48 AM
;FORMAT={-:-/ absolute / inch / decimal}
FMAT,2
INCH,TZ
T1C0.0315
T2C0.0394
T3C0.0433
T4C0.0512
%
G90
G05
M72
T1
X5.3Y-3.
X5.45Y-3.2
X5.2Y-3.2
X5.2Y-3.6
X5.95Y-2.9
X5.95Y-3.3
X5.Y-2.9
X5.Y-3.
X5.3Y-2.9
X5.45Y-3.6
X4.95Y-3.2
X4.95Y-3.6
T2
X4.75Y-2.9
X4.75Y-3.
X4.75Y-3.1
X4.75Y-3.2
X4.75Y-3.3
X4.75Y-3.4
X4.75Y-3.5
X4.75Y-3.6
X4.75Y-3.7
X4.75Y-3.8
X4.75Y-3.9
X6.3Y-2.9
X6.3Y-3.
X6.3Y-3.1
X6.3Y-3.2
X6.3Y-3.3
X6.3Y-3.4
X6.3Y-3.5
X6.3Y-3.6
X6.3Y-3.7
X6.3Y-3.8
X6.3Y-3.9
X6.3Y-4.
X6.3Y-4.1
X6.3Y-4.2
X6.3Y-4.3
X6.3Y-4.4
T3
X5.5Y-2.9
X5.5Y-3.0772
X5.7559Y-2.9
X5.7559Y-3.0772
T4
X5.65Y-3.5031
X5.65Y-3.7
X6.0437Y-3.6016
T0
M30
