G04 #@! TF.GenerationSoftware,KiCad,Pcbnew,(5.0.1)-4*
G04 #@! TF.CreationDate,2018-12-10T10:09:48+10:00*
G04 #@! TF.ProjectId,timer,74696D65722E6B696361645F70636200,rev?*
G04 #@! TF.SameCoordinates,Original*
G04 #@! TF.FileFunction,Copper,L2,Bot,Signal*
G04 #@! TF.FilePolarity,Positive*
%FSLAX46Y46*%
G04 Gerber Fmt 4.6, Leading zero omitted, Abs format (unit mm)*
G04 Created by KiCad (PCBNEW (5.0.1)-4) date 10-Dec-18 10:09:48 AM*
%MOMM*%
%LPD*%
G01*
G04 APERTURE LIST*
G04 #@! TA.AperFunction,ComponentPad*
%ADD10C,1.600000*%
G04 #@! TD*
G04 #@! TA.AperFunction,ComponentPad*
%ADD11O,1.600000X1.600000*%
G04 #@! TD*
G04 #@! TA.AperFunction,ComponentPad*
%ADD12C,2.340000*%
G04 #@! TD*
G04 #@! TA.AperFunction,ComponentPad*
%ADD13C,2.000000*%
G04 #@! TD*
G04 #@! TA.AperFunction,ComponentPad*
%ADD14R,1.700000X1.700000*%
G04 #@! TD*
G04 #@! TA.AperFunction,ComponentPad*
%ADD15O,1.700000X1.700000*%
G04 #@! TD*
G04 #@! TA.AperFunction,Conductor*
%ADD16C,0.250000*%
G04 #@! TD*
G04 #@! TA.AperFunction,Conductor*
%ADD17C,0.254000*%
G04 #@! TD*
G04 APERTURE END LIST*
D10*
G04 #@! TO.P,R1,2*
G04 #@! TO.N,Net-(R1-Pad2)*
X134620000Y-76200000D03*
G04 #@! TO.P,R1,1*
G04 #@! TO.N,Net-(R1-Pad1)*
X134620000Y-73660000D03*
G04 #@! TD*
D11*
G04 #@! TO.P,R2,2*
G04 #@! TO.N,Net-(R1-Pad2)*
X132080000Y-81280000D03*
D10*
G04 #@! TO.P,R2,1*
G04 #@! TO.N,Net-(R2-Pad1)*
X132080000Y-91440000D03*
G04 #@! TD*
G04 #@! TO.P,R3,1*
G04 #@! TO.N,Net-(R1-Pad1)*
X127000000Y-73660000D03*
G04 #@! TO.P,R3,2*
G04 #@! TO.N,Net-(R3-Pad2)*
X127000000Y-76200000D03*
G04 #@! TD*
G04 #@! TO.P,R4,1*
G04 #@! TO.N,Net-(R2-Pad1)*
X125730000Y-91440000D03*
D11*
G04 #@! TO.P,R4,2*
G04 #@! TO.N,Net-(R3-Pad2)*
X125730000Y-81280000D03*
G04 #@! TD*
D10*
G04 #@! TO.P,R5,1*
G04 #@! TO.N,Net-(R5-Pad1)*
X151130000Y-73660000D03*
D11*
G04 #@! TO.P,R5,2*
G04 #@! TO.N,Net-(R1-Pad1)*
X151130000Y-83820000D03*
G04 #@! TD*
G04 #@! TO.P,R6,2*
G04 #@! TO.N,Net-(R6-Pad2)*
X138430000Y-81280000D03*
D10*
G04 #@! TO.P,R6,1*
G04 #@! TO.N,Net-(R2-Pad1)*
X138430000Y-91440000D03*
G04 #@! TD*
D12*
G04 #@! TO.P,RV1,3*
G04 #@! TO.N,Net-(R1-Pad1)*
X143510000Y-88980000D03*
G04 #@! TO.P,RV1,2*
G04 #@! TO.N,Net-(RV1-Pad2)*
X153510000Y-91480000D03*
G04 #@! TO.P,RV1,1*
G04 #@! TO.N,Net-(R2-Pad1)*
X143510000Y-93980000D03*
G04 #@! TD*
D13*
G04 #@! TO.P,SW1,2*
G04 #@! TO.N,Net-(R6-Pad2)*
X139700000Y-78160000D03*
G04 #@! TO.P,SW1,1*
G04 #@! TO.N,Net-(R1-Pad1)*
X139700000Y-73660000D03*
G04 #@! TO.P,SW1,2*
G04 #@! TO.N,Net-(R6-Pad2)*
X146200000Y-78160000D03*
G04 #@! TO.P,SW1,1*
G04 #@! TO.N,Net-(R1-Pad1)*
X146200000Y-73660000D03*
G04 #@! TD*
D14*
G04 #@! TO.P,U1,1*
G04 #@! TO.N,Net-(R1-Pad1)*
X120650000Y-73660000D03*
D15*
G04 #@! TO.P,U1,2*
G04 #@! TO.N,Net-(R2-Pad1)*
X120650000Y-76200000D03*
G04 #@! TO.P,U1,3*
G04 #@! TO.N,Net-(R3-Pad2)*
X120650000Y-78740000D03*
G04 #@! TO.P,U1,4*
G04 #@! TO.N,Net-(R1-Pad2)*
X120650000Y-81280000D03*
G04 #@! TO.P,U1,5*
G04 #@! TO.N,Net-(R6-Pad2)*
X120650000Y-83820000D03*
G04 #@! TO.P,U1,6*
G04 #@! TO.N,Net-(U1-Pad6)*
X120650000Y-86360000D03*
G04 #@! TO.P,U1,7*
G04 #@! TO.N,Net-(U1-Pad7)*
X120650000Y-88900000D03*
G04 #@! TO.P,U1,8*
G04 #@! TO.N,Net-(U1-Pad8)*
X120650000Y-91440000D03*
G04 #@! TO.P,U1,9*
G04 #@! TO.N,Net-(U1-Pad9)*
X120650000Y-93980000D03*
G04 #@! TO.P,U1,10*
G04 #@! TO.N,Net-(U1-Pad10)*
X120650000Y-96520000D03*
G04 #@! TO.P,U1,11*
G04 #@! TO.N,Net-(U1-Pad11)*
X120650000Y-99060000D03*
G04 #@! TD*
D14*
G04 #@! TO.P,U2,1*
G04 #@! TO.N,Net-(R2-Pad1)*
X160020000Y-73660000D03*
D15*
G04 #@! TO.P,U2,2*
G04 #@! TO.N,Net-(R5-Pad1)*
X160020000Y-76200000D03*
G04 #@! TO.P,U2,3*
G04 #@! TO.N,Net-(RV1-Pad2)*
X160020000Y-78740000D03*
G04 #@! TO.P,U2,4*
G04 #@! TO.N,Net-(U1-Pad6)*
X160020000Y-81280000D03*
G04 #@! TO.P,U2,5*
G04 #@! TO.N,Net-(R1-Pad1)*
X160020000Y-83820000D03*
G04 #@! TO.P,U2,6*
G04 #@! TO.N,Net-(U1-Pad7)*
X160020000Y-86360000D03*
G04 #@! TO.P,U2,7*
G04 #@! TO.N,Net-(U2-Pad7)*
X160020000Y-88900000D03*
G04 #@! TO.P,U2,8*
G04 #@! TO.N,Net-(U2-Pad8)*
X160020000Y-91440000D03*
G04 #@! TO.P,U2,9*
G04 #@! TO.N,Net-(U2-Pad9)*
X160020000Y-93980000D03*
G04 #@! TO.P,U2,10*
G04 #@! TO.N,Net-(U2-Pad10)*
X160020000Y-96520000D03*
G04 #@! TO.P,U2,11*
G04 #@! TO.N,Net-(U1-Pad8)*
X160020000Y-99060000D03*
G04 #@! TO.P,U2,12*
G04 #@! TO.N,Net-(U1-Pad9)*
X160020000Y-101600000D03*
G04 #@! TO.P,U2,13*
G04 #@! TO.N,Net-(U1-Pad10)*
X160020000Y-104140000D03*
G04 #@! TO.P,U2,14*
G04 #@! TO.N,Net-(U1-Pad11)*
X160020000Y-106680000D03*
G04 #@! TO.P,U2,15*
G04 #@! TO.N,Net-(R1-Pad1)*
X160020000Y-109220000D03*
G04 #@! TO.P,U2,16*
G04 #@! TO.N,Net-(R2-Pad1)*
X160020000Y-111760000D03*
G04 #@! TD*
D16*
G04 #@! TO.N,Net-(R1-Pad1)*
X157480000Y-106680000D02*
X160020000Y-109220000D01*
X160020000Y-83820000D02*
X157480000Y-86360000D01*
X157480000Y-86360000D02*
X157480000Y-106680000D01*
G04 #@! TO.N,Net-(RV1-Pad2)*
X154820000Y-90170000D02*
X153510000Y-91480000D01*
X154940000Y-90170000D02*
X154820000Y-90170000D01*
X160020000Y-78740000D02*
X154940000Y-83820000D01*
X154940000Y-83820000D02*
X154940000Y-90170000D01*
G04 #@! TO.N,Net-(U1-Pad6)*
X144780000Y-86360000D02*
X120650000Y-86360000D01*
X152400000Y-93980000D02*
X144780000Y-86360000D01*
X154940000Y-93980000D02*
X152400000Y-93980000D01*
X156210000Y-92710000D02*
X154940000Y-93980000D01*
X160020000Y-81280000D02*
X156210000Y-85090000D01*
X156210000Y-85090000D02*
X156210000Y-92710000D01*
G04 #@! TD*
D17*
G04 #@! TO.N,Net-(R2-Pad1)*
G36*
X161850001Y-119940000D02*
X112470000Y-119940000D01*
X112470000Y-112116890D01*
X158578524Y-112116890D01*
X158748355Y-112526924D01*
X159138642Y-112955183D01*
X159663108Y-113201486D01*
X159893000Y-113080819D01*
X159893000Y-111887000D01*
X160147000Y-111887000D01*
X160147000Y-113080819D01*
X160376892Y-113201486D01*
X160901358Y-112955183D01*
X161291645Y-112526924D01*
X161461476Y-112116890D01*
X161340155Y-111887000D01*
X160147000Y-111887000D01*
X159893000Y-111887000D01*
X158699845Y-111887000D01*
X158578524Y-112116890D01*
X112470000Y-112116890D01*
X112470000Y-78740000D01*
X119135908Y-78740000D01*
X119251161Y-79319418D01*
X119579375Y-79810625D01*
X119877761Y-80010000D01*
X119579375Y-80209375D01*
X119251161Y-80700582D01*
X119135908Y-81280000D01*
X119251161Y-81859418D01*
X119579375Y-82350625D01*
X119877761Y-82550000D01*
X119579375Y-82749375D01*
X119251161Y-83240582D01*
X119135908Y-83820000D01*
X119251161Y-84399418D01*
X119579375Y-84890625D01*
X119877761Y-85090000D01*
X119579375Y-85289375D01*
X119251161Y-85780582D01*
X119135908Y-86360000D01*
X119251161Y-86939418D01*
X119579375Y-87430625D01*
X119877761Y-87630000D01*
X119579375Y-87829375D01*
X119251161Y-88320582D01*
X119135908Y-88900000D01*
X119251161Y-89479418D01*
X119579375Y-89970625D01*
X119877761Y-90170000D01*
X119579375Y-90369375D01*
X119251161Y-90860582D01*
X119135908Y-91440000D01*
X119251161Y-92019418D01*
X119579375Y-92510625D01*
X119877761Y-92710000D01*
X119579375Y-92909375D01*
X119251161Y-93400582D01*
X119135908Y-93980000D01*
X119251161Y-94559418D01*
X119579375Y-95050625D01*
X119877761Y-95250000D01*
X119579375Y-95449375D01*
X119251161Y-95940582D01*
X119135908Y-96520000D01*
X119251161Y-97099418D01*
X119579375Y-97590625D01*
X119877761Y-97790000D01*
X119579375Y-97989375D01*
X119251161Y-98480582D01*
X119135908Y-99060000D01*
X119251161Y-99639418D01*
X119579375Y-100130625D01*
X120070582Y-100458839D01*
X120503744Y-100545000D01*
X120796256Y-100545000D01*
X121229418Y-100458839D01*
X121720625Y-100130625D01*
X122048839Y-99639418D01*
X122164092Y-99060000D01*
X122048839Y-98480582D01*
X121720625Y-97989375D01*
X121422239Y-97790000D01*
X121720625Y-97590625D01*
X122048839Y-97099418D01*
X122164092Y-96520000D01*
X122048839Y-95940582D01*
X121720625Y-95449375D01*
X121430450Y-95255486D01*
X142414120Y-95255486D01*
X142533586Y-95539984D01*
X143204890Y-95794894D01*
X143922646Y-95773504D01*
X144486414Y-95539984D01*
X144605880Y-95255486D01*
X143510000Y-94159605D01*
X142414120Y-95255486D01*
X121430450Y-95255486D01*
X121422239Y-95250000D01*
X121720625Y-95050625D01*
X122048839Y-94559418D01*
X122164092Y-93980000D01*
X122103403Y-93674890D01*
X141695106Y-93674890D01*
X141716496Y-94392646D01*
X141950016Y-94956414D01*
X142234514Y-95075880D01*
X143330395Y-93980000D01*
X143689605Y-93980000D01*
X144785486Y-95075880D01*
X145069984Y-94956414D01*
X145324894Y-94285110D01*
X145303504Y-93567354D01*
X145069984Y-93003586D01*
X144785486Y-92884120D01*
X143689605Y-93980000D01*
X143330395Y-93980000D01*
X142234514Y-92884120D01*
X141950016Y-93003586D01*
X141695106Y-93674890D01*
X122103403Y-93674890D01*
X122048839Y-93400582D01*
X121720625Y-92909375D01*
X121422239Y-92710000D01*
X121720625Y-92510625D01*
X121762640Y-92447745D01*
X124901861Y-92447745D01*
X124975995Y-92693864D01*
X125513223Y-92886965D01*
X126083454Y-92859778D01*
X126484005Y-92693864D01*
X126558139Y-92447745D01*
X131251861Y-92447745D01*
X131325995Y-92693864D01*
X131863223Y-92886965D01*
X132433454Y-92859778D01*
X132834005Y-92693864D01*
X132908139Y-92447745D01*
X137601861Y-92447745D01*
X137675995Y-92693864D01*
X138213223Y-92886965D01*
X138783454Y-92859778D01*
X139158293Y-92704514D01*
X142414120Y-92704514D01*
X143510000Y-93800395D01*
X144605880Y-92704514D01*
X144486414Y-92420016D01*
X143815110Y-92165106D01*
X143097354Y-92186496D01*
X142533586Y-92420016D01*
X142414120Y-92704514D01*
X139158293Y-92704514D01*
X139184005Y-92693864D01*
X139258139Y-92447745D01*
X138430000Y-91619605D01*
X137601861Y-92447745D01*
X132908139Y-92447745D01*
X132080000Y-91619605D01*
X131251861Y-92447745D01*
X126558139Y-92447745D01*
X125730000Y-91619605D01*
X124901861Y-92447745D01*
X121762640Y-92447745D01*
X122048839Y-92019418D01*
X122164092Y-91440000D01*
X122120973Y-91223223D01*
X124283035Y-91223223D01*
X124310222Y-91793454D01*
X124476136Y-92194005D01*
X124722255Y-92268139D01*
X125550395Y-91440000D01*
X125909605Y-91440000D01*
X126737745Y-92268139D01*
X126983864Y-92194005D01*
X127176965Y-91656777D01*
X127156295Y-91223223D01*
X130633035Y-91223223D01*
X130660222Y-91793454D01*
X130826136Y-92194005D01*
X131072255Y-92268139D01*
X131900395Y-91440000D01*
X132259605Y-91440000D01*
X133087745Y-92268139D01*
X133333864Y-92194005D01*
X133526965Y-91656777D01*
X133506295Y-91223223D01*
X136983035Y-91223223D01*
X137010222Y-91793454D01*
X137176136Y-92194005D01*
X137422255Y-92268139D01*
X138250395Y-91440000D01*
X138609605Y-91440000D01*
X139437745Y-92268139D01*
X139683864Y-92194005D01*
X139876965Y-91656777D01*
X139849778Y-91086546D01*
X139683864Y-90685995D01*
X139437745Y-90611861D01*
X138609605Y-91440000D01*
X138250395Y-91440000D01*
X137422255Y-90611861D01*
X137176136Y-90685995D01*
X136983035Y-91223223D01*
X133506295Y-91223223D01*
X133499778Y-91086546D01*
X133333864Y-90685995D01*
X133087745Y-90611861D01*
X132259605Y-91440000D01*
X131900395Y-91440000D01*
X131072255Y-90611861D01*
X130826136Y-90685995D01*
X130633035Y-91223223D01*
X127156295Y-91223223D01*
X127149778Y-91086546D01*
X126983864Y-90685995D01*
X126737745Y-90611861D01*
X125909605Y-91440000D01*
X125550395Y-91440000D01*
X124722255Y-90611861D01*
X124476136Y-90685995D01*
X124283035Y-91223223D01*
X122120973Y-91223223D01*
X122048839Y-90860582D01*
X121762641Y-90432255D01*
X124901861Y-90432255D01*
X125730000Y-91260395D01*
X126558139Y-90432255D01*
X131251861Y-90432255D01*
X132080000Y-91260395D01*
X132908139Y-90432255D01*
X137601861Y-90432255D01*
X138430000Y-91260395D01*
X139258139Y-90432255D01*
X139184005Y-90186136D01*
X138646777Y-89993035D01*
X138076546Y-90020222D01*
X137675995Y-90186136D01*
X137601861Y-90432255D01*
X132908139Y-90432255D01*
X132834005Y-90186136D01*
X132296777Y-89993035D01*
X131726546Y-90020222D01*
X131325995Y-90186136D01*
X131251861Y-90432255D01*
X126558139Y-90432255D01*
X126484005Y-90186136D01*
X125946777Y-89993035D01*
X125376546Y-90020222D01*
X124975995Y-90186136D01*
X124901861Y-90432255D01*
X121762641Y-90432255D01*
X121720625Y-90369375D01*
X121422239Y-90170000D01*
X121720625Y-89970625D01*
X122048839Y-89479418D01*
X122164092Y-88900000D01*
X122108589Y-88620963D01*
X141705000Y-88620963D01*
X141705000Y-89339037D01*
X141979795Y-90002450D01*
X142487550Y-90510205D01*
X143150963Y-90785000D01*
X143869037Y-90785000D01*
X144532450Y-90510205D01*
X145040205Y-90002450D01*
X145315000Y-89339037D01*
X145315000Y-88620963D01*
X145040205Y-87957550D01*
X144532450Y-87449795D01*
X143869037Y-87175000D01*
X143150963Y-87175000D01*
X142487550Y-87449795D01*
X141979795Y-87957550D01*
X141705000Y-88620963D01*
X122108589Y-88620963D01*
X122048839Y-88320582D01*
X121720625Y-87829375D01*
X121422239Y-87630000D01*
X121720625Y-87430625D01*
X121928178Y-87120000D01*
X144465199Y-87120000D01*
X151809673Y-94464476D01*
X151852071Y-94527929D01*
X151915524Y-94570327D01*
X151915526Y-94570329D01*
X152040902Y-94654102D01*
X152103463Y-94695904D01*
X152325148Y-94740000D01*
X152325152Y-94740000D01*
X152399999Y-94754888D01*
X152474846Y-94740000D01*
X154865153Y-94740000D01*
X154940000Y-94754888D01*
X155014847Y-94740000D01*
X155014852Y-94740000D01*
X155236537Y-94695904D01*
X155487929Y-94527929D01*
X155530331Y-94464470D01*
X156694473Y-93300329D01*
X156720000Y-93283272D01*
X156720001Y-106605148D01*
X156705112Y-106680000D01*
X156720001Y-106754852D01*
X156764097Y-106976537D01*
X156932072Y-107227929D01*
X156995528Y-107270329D01*
X158578791Y-108853593D01*
X158505908Y-109220000D01*
X158621161Y-109799418D01*
X158949375Y-110290625D01*
X159268478Y-110503843D01*
X159138642Y-110564817D01*
X158748355Y-110993076D01*
X158578524Y-111403110D01*
X158699845Y-111633000D01*
X159893000Y-111633000D01*
X159893000Y-111613000D01*
X160147000Y-111613000D01*
X160147000Y-111633000D01*
X161340155Y-111633000D01*
X161461476Y-111403110D01*
X161291645Y-110993076D01*
X160901358Y-110564817D01*
X160771522Y-110503843D01*
X161090625Y-110290625D01*
X161418839Y-109799418D01*
X161534092Y-109220000D01*
X161418839Y-108640582D01*
X161090625Y-108149375D01*
X160792239Y-107950000D01*
X161090625Y-107750625D01*
X161418839Y-107259418D01*
X161534092Y-106680000D01*
X161418839Y-106100582D01*
X161090625Y-105609375D01*
X160792239Y-105410000D01*
X161090625Y-105210625D01*
X161418839Y-104719418D01*
X161534092Y-104140000D01*
X161418839Y-103560582D01*
X161090625Y-103069375D01*
X160792239Y-102870000D01*
X161090625Y-102670625D01*
X161418839Y-102179418D01*
X161534092Y-101600000D01*
X161418839Y-101020582D01*
X161090625Y-100529375D01*
X160792239Y-100330000D01*
X161090625Y-100130625D01*
X161418839Y-99639418D01*
X161534092Y-99060000D01*
X161418839Y-98480582D01*
X161090625Y-97989375D01*
X160792239Y-97790000D01*
X161090625Y-97590625D01*
X161418839Y-97099418D01*
X161534092Y-96520000D01*
X161418839Y-95940582D01*
X161090625Y-95449375D01*
X160792239Y-95250000D01*
X161090625Y-95050625D01*
X161418839Y-94559418D01*
X161534092Y-93980000D01*
X161418839Y-93400582D01*
X161090625Y-92909375D01*
X160792239Y-92710000D01*
X161090625Y-92510625D01*
X161418839Y-92019418D01*
X161534092Y-91440000D01*
X161418839Y-90860582D01*
X161090625Y-90369375D01*
X160792239Y-90170000D01*
X161090625Y-89970625D01*
X161418839Y-89479418D01*
X161534092Y-88900000D01*
X161418839Y-88320582D01*
X161090625Y-87829375D01*
X160792239Y-87630000D01*
X161090625Y-87430625D01*
X161418839Y-86939418D01*
X161534092Y-86360000D01*
X161418839Y-85780582D01*
X161090625Y-85289375D01*
X160792239Y-85090000D01*
X161090625Y-84890625D01*
X161418839Y-84399418D01*
X161534092Y-83820000D01*
X161418839Y-83240582D01*
X161090625Y-82749375D01*
X160792239Y-82550000D01*
X161090625Y-82350625D01*
X161418839Y-81859418D01*
X161534092Y-81280000D01*
X161418839Y-80700582D01*
X161090625Y-80209375D01*
X160792239Y-80010000D01*
X161090625Y-79810625D01*
X161418839Y-79319418D01*
X161534092Y-78740000D01*
X161418839Y-78160582D01*
X161090625Y-77669375D01*
X160792239Y-77470000D01*
X161090625Y-77270625D01*
X161418839Y-76779418D01*
X161534092Y-76200000D01*
X161418839Y-75620582D01*
X161090625Y-75129375D01*
X161068967Y-75114904D01*
X161229698Y-75048327D01*
X161408327Y-74869699D01*
X161505000Y-74636310D01*
X161505000Y-73945750D01*
X161346250Y-73787000D01*
X160147000Y-73787000D01*
X160147000Y-73807000D01*
X159893000Y-73807000D01*
X159893000Y-73787000D01*
X158693750Y-73787000D01*
X158535000Y-73945750D01*
X158535000Y-74636310D01*
X158631673Y-74869699D01*
X158810302Y-75048327D01*
X158971033Y-75114904D01*
X158949375Y-75129375D01*
X158621161Y-75620582D01*
X158505908Y-76200000D01*
X158621161Y-76779418D01*
X158949375Y-77270625D01*
X159247761Y-77470000D01*
X158949375Y-77669375D01*
X158621161Y-78160582D01*
X158505908Y-78740000D01*
X158578791Y-79106407D01*
X154455530Y-83229669D01*
X154392071Y-83272071D01*
X154224096Y-83523464D01*
X154180000Y-83745149D01*
X154180000Y-83745153D01*
X154165112Y-83820000D01*
X154180000Y-83894847D01*
X154180001Y-89735197D01*
X154131487Y-89783711D01*
X153869037Y-89675000D01*
X153150963Y-89675000D01*
X152487550Y-89949795D01*
X151979795Y-90457550D01*
X151705000Y-91120963D01*
X151705000Y-91839037D01*
X151967450Y-92472648D01*
X145370331Y-85875530D01*
X145327929Y-85812071D01*
X145076537Y-85644096D01*
X144854852Y-85600000D01*
X144854847Y-85600000D01*
X144780000Y-85585112D01*
X144705153Y-85600000D01*
X121928178Y-85600000D01*
X121720625Y-85289375D01*
X121422239Y-85090000D01*
X121720625Y-84890625D01*
X122048839Y-84399418D01*
X122164092Y-83820000D01*
X149666887Y-83820000D01*
X149778260Y-84379909D01*
X150095423Y-84854577D01*
X150570091Y-85171740D01*
X150988667Y-85255000D01*
X151271333Y-85255000D01*
X151689909Y-85171740D01*
X152164577Y-84854577D01*
X152481740Y-84379909D01*
X152593113Y-83820000D01*
X152481740Y-83260091D01*
X152164577Y-82785423D01*
X151689909Y-82468260D01*
X151271333Y-82385000D01*
X150988667Y-82385000D01*
X150570091Y-82468260D01*
X150095423Y-82785423D01*
X149778260Y-83260091D01*
X149666887Y-83820000D01*
X122164092Y-83820000D01*
X122048839Y-83240582D01*
X121720625Y-82749375D01*
X121422239Y-82550000D01*
X121720625Y-82350625D01*
X122048839Y-81859418D01*
X122164092Y-81280000D01*
X124266887Y-81280000D01*
X124378260Y-81839909D01*
X124695423Y-82314577D01*
X125170091Y-82631740D01*
X125588667Y-82715000D01*
X125871333Y-82715000D01*
X126289909Y-82631740D01*
X126764577Y-82314577D01*
X127081740Y-81839909D01*
X127193113Y-81280000D01*
X130616887Y-81280000D01*
X130728260Y-81839909D01*
X131045423Y-82314577D01*
X131520091Y-82631740D01*
X131938667Y-82715000D01*
X132221333Y-82715000D01*
X132639909Y-82631740D01*
X133114577Y-82314577D01*
X133431740Y-81839909D01*
X133543113Y-81280000D01*
X136966887Y-81280000D01*
X137078260Y-81839909D01*
X137395423Y-82314577D01*
X137870091Y-82631740D01*
X138288667Y-82715000D01*
X138571333Y-82715000D01*
X138989909Y-82631740D01*
X139464577Y-82314577D01*
X139781740Y-81839909D01*
X139893113Y-81280000D01*
X139781740Y-80720091D01*
X139464577Y-80245423D01*
X138989909Y-79928260D01*
X138571333Y-79845000D01*
X138288667Y-79845000D01*
X137870091Y-79928260D01*
X137395423Y-80245423D01*
X137078260Y-80720091D01*
X136966887Y-81280000D01*
X133543113Y-81280000D01*
X133431740Y-80720091D01*
X133114577Y-80245423D01*
X132639909Y-79928260D01*
X132221333Y-79845000D01*
X131938667Y-79845000D01*
X131520091Y-79928260D01*
X131045423Y-80245423D01*
X130728260Y-80720091D01*
X130616887Y-81280000D01*
X127193113Y-81280000D01*
X127081740Y-80720091D01*
X126764577Y-80245423D01*
X126289909Y-79928260D01*
X125871333Y-79845000D01*
X125588667Y-79845000D01*
X125170091Y-79928260D01*
X124695423Y-80245423D01*
X124378260Y-80720091D01*
X124266887Y-81280000D01*
X122164092Y-81280000D01*
X122048839Y-80700582D01*
X121720625Y-80209375D01*
X121422239Y-80010000D01*
X121720625Y-79810625D01*
X122048839Y-79319418D01*
X122164092Y-78740000D01*
X122048839Y-78160582D01*
X121831144Y-77834778D01*
X138065000Y-77834778D01*
X138065000Y-78485222D01*
X138313914Y-79086153D01*
X138773847Y-79546086D01*
X139374778Y-79795000D01*
X140025222Y-79795000D01*
X140626153Y-79546086D01*
X141086086Y-79086153D01*
X141335000Y-78485222D01*
X141335000Y-77834778D01*
X144565000Y-77834778D01*
X144565000Y-78485222D01*
X144813914Y-79086153D01*
X145273847Y-79546086D01*
X145874778Y-79795000D01*
X146525222Y-79795000D01*
X147126153Y-79546086D01*
X147586086Y-79086153D01*
X147835000Y-78485222D01*
X147835000Y-77834778D01*
X147586086Y-77233847D01*
X147126153Y-76773914D01*
X146525222Y-76525000D01*
X145874778Y-76525000D01*
X145273847Y-76773914D01*
X144813914Y-77233847D01*
X144565000Y-77834778D01*
X141335000Y-77834778D01*
X141086086Y-77233847D01*
X140626153Y-76773914D01*
X140025222Y-76525000D01*
X139374778Y-76525000D01*
X138773847Y-76773914D01*
X138313914Y-77233847D01*
X138065000Y-77834778D01*
X121831144Y-77834778D01*
X121720625Y-77669375D01*
X121401522Y-77456157D01*
X121531358Y-77395183D01*
X121921645Y-76966924D01*
X122091476Y-76556890D01*
X121970155Y-76327000D01*
X120777000Y-76327000D01*
X120777000Y-76347000D01*
X120523000Y-76347000D01*
X120523000Y-76327000D01*
X119329845Y-76327000D01*
X119208524Y-76556890D01*
X119378355Y-76966924D01*
X119768642Y-77395183D01*
X119898478Y-77456157D01*
X119579375Y-77669375D01*
X119251161Y-78160582D01*
X119135908Y-78740000D01*
X112470000Y-78740000D01*
X112470000Y-72810000D01*
X119152560Y-72810000D01*
X119152560Y-74510000D01*
X119201843Y-74757765D01*
X119342191Y-74967809D01*
X119552235Y-75108157D01*
X119655708Y-75128739D01*
X119378355Y-75433076D01*
X119208524Y-75843110D01*
X119329845Y-76073000D01*
X120523000Y-76073000D01*
X120523000Y-76053000D01*
X120777000Y-76053000D01*
X120777000Y-76073000D01*
X121970155Y-76073000D01*
X122091476Y-75843110D01*
X121921645Y-75433076D01*
X121644292Y-75128739D01*
X121747765Y-75108157D01*
X121957809Y-74967809D01*
X122098157Y-74757765D01*
X122147440Y-74510000D01*
X122147440Y-73374561D01*
X125565000Y-73374561D01*
X125565000Y-73945439D01*
X125783466Y-74472862D01*
X126187138Y-74876534D01*
X126316216Y-74930000D01*
X126187138Y-74983466D01*
X125783466Y-75387138D01*
X125565000Y-75914561D01*
X125565000Y-76485439D01*
X125783466Y-77012862D01*
X126187138Y-77416534D01*
X126714561Y-77635000D01*
X127285439Y-77635000D01*
X127812862Y-77416534D01*
X128216534Y-77012862D01*
X128435000Y-76485439D01*
X128435000Y-75914561D01*
X128216534Y-75387138D01*
X127812862Y-74983466D01*
X127683784Y-74930000D01*
X127812862Y-74876534D01*
X128216534Y-74472862D01*
X128435000Y-73945439D01*
X128435000Y-73374561D01*
X133185000Y-73374561D01*
X133185000Y-73945439D01*
X133403466Y-74472862D01*
X133807138Y-74876534D01*
X133936216Y-74930000D01*
X133807138Y-74983466D01*
X133403466Y-75387138D01*
X133185000Y-75914561D01*
X133185000Y-76485439D01*
X133403466Y-77012862D01*
X133807138Y-77416534D01*
X134334561Y-77635000D01*
X134905439Y-77635000D01*
X135432862Y-77416534D01*
X135836534Y-77012862D01*
X136055000Y-76485439D01*
X136055000Y-75914561D01*
X135836534Y-75387138D01*
X135432862Y-74983466D01*
X135303784Y-74930000D01*
X135432862Y-74876534D01*
X135836534Y-74472862D01*
X136055000Y-73945439D01*
X136055000Y-73374561D01*
X136038522Y-73334778D01*
X138065000Y-73334778D01*
X138065000Y-73985222D01*
X138313914Y-74586153D01*
X138773847Y-75046086D01*
X139374778Y-75295000D01*
X140025222Y-75295000D01*
X140626153Y-75046086D01*
X141086086Y-74586153D01*
X141335000Y-73985222D01*
X141335000Y-73334778D01*
X144565000Y-73334778D01*
X144565000Y-73985222D01*
X144813914Y-74586153D01*
X145273847Y-75046086D01*
X145874778Y-75295000D01*
X146525222Y-75295000D01*
X147126153Y-75046086D01*
X147586086Y-74586153D01*
X147835000Y-73985222D01*
X147835000Y-73374561D01*
X149695000Y-73374561D01*
X149695000Y-73945439D01*
X149913466Y-74472862D01*
X150317138Y-74876534D01*
X150844561Y-75095000D01*
X151415439Y-75095000D01*
X151942862Y-74876534D01*
X152346534Y-74472862D01*
X152565000Y-73945439D01*
X152565000Y-73374561D01*
X152346534Y-72847138D01*
X152183086Y-72683690D01*
X158535000Y-72683690D01*
X158535000Y-73374250D01*
X158693750Y-73533000D01*
X159893000Y-73533000D01*
X159893000Y-72333750D01*
X160147000Y-72333750D01*
X160147000Y-73533000D01*
X161346250Y-73533000D01*
X161505000Y-73374250D01*
X161505000Y-72683690D01*
X161408327Y-72450301D01*
X161229698Y-72271673D01*
X160996309Y-72175000D01*
X160305750Y-72175000D01*
X160147000Y-72333750D01*
X159893000Y-72333750D01*
X159734250Y-72175000D01*
X159043691Y-72175000D01*
X158810302Y-72271673D01*
X158631673Y-72450301D01*
X158535000Y-72683690D01*
X152183086Y-72683690D01*
X151942862Y-72443466D01*
X151415439Y-72225000D01*
X150844561Y-72225000D01*
X150317138Y-72443466D01*
X149913466Y-72847138D01*
X149695000Y-73374561D01*
X147835000Y-73374561D01*
X147835000Y-73334778D01*
X147586086Y-72733847D01*
X147126153Y-72273914D01*
X146525222Y-72025000D01*
X145874778Y-72025000D01*
X145273847Y-72273914D01*
X144813914Y-72733847D01*
X144565000Y-73334778D01*
X141335000Y-73334778D01*
X141086086Y-72733847D01*
X140626153Y-72273914D01*
X140025222Y-72025000D01*
X139374778Y-72025000D01*
X138773847Y-72273914D01*
X138313914Y-72733847D01*
X138065000Y-73334778D01*
X136038522Y-73334778D01*
X135836534Y-72847138D01*
X135432862Y-72443466D01*
X134905439Y-72225000D01*
X134334561Y-72225000D01*
X133807138Y-72443466D01*
X133403466Y-72847138D01*
X133185000Y-73374561D01*
X128435000Y-73374561D01*
X128216534Y-72847138D01*
X127812862Y-72443466D01*
X127285439Y-72225000D01*
X126714561Y-72225000D01*
X126187138Y-72443466D01*
X125783466Y-72847138D01*
X125565000Y-73374561D01*
X122147440Y-73374561D01*
X122147440Y-72810000D01*
X122098157Y-72562235D01*
X121957809Y-72352191D01*
X121747765Y-72211843D01*
X121500000Y-72162560D01*
X119800000Y-72162560D01*
X119552235Y-72211843D01*
X119342191Y-72352191D01*
X119201843Y-72562235D01*
X119152560Y-72810000D01*
X112470000Y-72810000D01*
X112470000Y-70560000D01*
X161850000Y-70560000D01*
X161850001Y-119940000D01*
X161850001Y-119940000D01*
G37*
X161850001Y-119940000D02*
X112470000Y-119940000D01*
X112470000Y-112116890D01*
X158578524Y-112116890D01*
X158748355Y-112526924D01*
X159138642Y-112955183D01*
X159663108Y-113201486D01*
X159893000Y-113080819D01*
X159893000Y-111887000D01*
X160147000Y-111887000D01*
X160147000Y-113080819D01*
X160376892Y-113201486D01*
X160901358Y-112955183D01*
X161291645Y-112526924D01*
X161461476Y-112116890D01*
X161340155Y-111887000D01*
X160147000Y-111887000D01*
X159893000Y-111887000D01*
X158699845Y-111887000D01*
X158578524Y-112116890D01*
X112470000Y-112116890D01*
X112470000Y-78740000D01*
X119135908Y-78740000D01*
X119251161Y-79319418D01*
X119579375Y-79810625D01*
X119877761Y-80010000D01*
X119579375Y-80209375D01*
X119251161Y-80700582D01*
X119135908Y-81280000D01*
X119251161Y-81859418D01*
X119579375Y-82350625D01*
X119877761Y-82550000D01*
X119579375Y-82749375D01*
X119251161Y-83240582D01*
X119135908Y-83820000D01*
X119251161Y-84399418D01*
X119579375Y-84890625D01*
X119877761Y-85090000D01*
X119579375Y-85289375D01*
X119251161Y-85780582D01*
X119135908Y-86360000D01*
X119251161Y-86939418D01*
X119579375Y-87430625D01*
X119877761Y-87630000D01*
X119579375Y-87829375D01*
X119251161Y-88320582D01*
X119135908Y-88900000D01*
X119251161Y-89479418D01*
X119579375Y-89970625D01*
X119877761Y-90170000D01*
X119579375Y-90369375D01*
X119251161Y-90860582D01*
X119135908Y-91440000D01*
X119251161Y-92019418D01*
X119579375Y-92510625D01*
X119877761Y-92710000D01*
X119579375Y-92909375D01*
X119251161Y-93400582D01*
X119135908Y-93980000D01*
X119251161Y-94559418D01*
X119579375Y-95050625D01*
X119877761Y-95250000D01*
X119579375Y-95449375D01*
X119251161Y-95940582D01*
X119135908Y-96520000D01*
X119251161Y-97099418D01*
X119579375Y-97590625D01*
X119877761Y-97790000D01*
X119579375Y-97989375D01*
X119251161Y-98480582D01*
X119135908Y-99060000D01*
X119251161Y-99639418D01*
X119579375Y-100130625D01*
X120070582Y-100458839D01*
X120503744Y-100545000D01*
X120796256Y-100545000D01*
X121229418Y-100458839D01*
X121720625Y-100130625D01*
X122048839Y-99639418D01*
X122164092Y-99060000D01*
X122048839Y-98480582D01*
X121720625Y-97989375D01*
X121422239Y-97790000D01*
X121720625Y-97590625D01*
X122048839Y-97099418D01*
X122164092Y-96520000D01*
X122048839Y-95940582D01*
X121720625Y-95449375D01*
X121430450Y-95255486D01*
X142414120Y-95255486D01*
X142533586Y-95539984D01*
X143204890Y-95794894D01*
X143922646Y-95773504D01*
X144486414Y-95539984D01*
X144605880Y-95255486D01*
X143510000Y-94159605D01*
X142414120Y-95255486D01*
X121430450Y-95255486D01*
X121422239Y-95250000D01*
X121720625Y-95050625D01*
X122048839Y-94559418D01*
X122164092Y-93980000D01*
X122103403Y-93674890D01*
X141695106Y-93674890D01*
X141716496Y-94392646D01*
X141950016Y-94956414D01*
X142234514Y-95075880D01*
X143330395Y-93980000D01*
X143689605Y-93980000D01*
X144785486Y-95075880D01*
X145069984Y-94956414D01*
X145324894Y-94285110D01*
X145303504Y-93567354D01*
X145069984Y-93003586D01*
X144785486Y-92884120D01*
X143689605Y-93980000D01*
X143330395Y-93980000D01*
X142234514Y-92884120D01*
X141950016Y-93003586D01*
X141695106Y-93674890D01*
X122103403Y-93674890D01*
X122048839Y-93400582D01*
X121720625Y-92909375D01*
X121422239Y-92710000D01*
X121720625Y-92510625D01*
X121762640Y-92447745D01*
X124901861Y-92447745D01*
X124975995Y-92693864D01*
X125513223Y-92886965D01*
X126083454Y-92859778D01*
X126484005Y-92693864D01*
X126558139Y-92447745D01*
X131251861Y-92447745D01*
X131325995Y-92693864D01*
X131863223Y-92886965D01*
X132433454Y-92859778D01*
X132834005Y-92693864D01*
X132908139Y-92447745D01*
X137601861Y-92447745D01*
X137675995Y-92693864D01*
X138213223Y-92886965D01*
X138783454Y-92859778D01*
X139158293Y-92704514D01*
X142414120Y-92704514D01*
X143510000Y-93800395D01*
X144605880Y-92704514D01*
X144486414Y-92420016D01*
X143815110Y-92165106D01*
X143097354Y-92186496D01*
X142533586Y-92420016D01*
X142414120Y-92704514D01*
X139158293Y-92704514D01*
X139184005Y-92693864D01*
X139258139Y-92447745D01*
X138430000Y-91619605D01*
X137601861Y-92447745D01*
X132908139Y-92447745D01*
X132080000Y-91619605D01*
X131251861Y-92447745D01*
X126558139Y-92447745D01*
X125730000Y-91619605D01*
X124901861Y-92447745D01*
X121762640Y-92447745D01*
X122048839Y-92019418D01*
X122164092Y-91440000D01*
X122120973Y-91223223D01*
X124283035Y-91223223D01*
X124310222Y-91793454D01*
X124476136Y-92194005D01*
X124722255Y-92268139D01*
X125550395Y-91440000D01*
X125909605Y-91440000D01*
X126737745Y-92268139D01*
X126983864Y-92194005D01*
X127176965Y-91656777D01*
X127156295Y-91223223D01*
X130633035Y-91223223D01*
X130660222Y-91793454D01*
X130826136Y-92194005D01*
X131072255Y-92268139D01*
X131900395Y-91440000D01*
X132259605Y-91440000D01*
X133087745Y-92268139D01*
X133333864Y-92194005D01*
X133526965Y-91656777D01*
X133506295Y-91223223D01*
X136983035Y-91223223D01*
X137010222Y-91793454D01*
X137176136Y-92194005D01*
X137422255Y-92268139D01*
X138250395Y-91440000D01*
X138609605Y-91440000D01*
X139437745Y-92268139D01*
X139683864Y-92194005D01*
X139876965Y-91656777D01*
X139849778Y-91086546D01*
X139683864Y-90685995D01*
X139437745Y-90611861D01*
X138609605Y-91440000D01*
X138250395Y-91440000D01*
X137422255Y-90611861D01*
X137176136Y-90685995D01*
X136983035Y-91223223D01*
X133506295Y-91223223D01*
X133499778Y-91086546D01*
X133333864Y-90685995D01*
X133087745Y-90611861D01*
X132259605Y-91440000D01*
X131900395Y-91440000D01*
X131072255Y-90611861D01*
X130826136Y-90685995D01*
X130633035Y-91223223D01*
X127156295Y-91223223D01*
X127149778Y-91086546D01*
X126983864Y-90685995D01*
X126737745Y-90611861D01*
X125909605Y-91440000D01*
X125550395Y-91440000D01*
X124722255Y-90611861D01*
X124476136Y-90685995D01*
X124283035Y-91223223D01*
X122120973Y-91223223D01*
X122048839Y-90860582D01*
X121762641Y-90432255D01*
X124901861Y-90432255D01*
X125730000Y-91260395D01*
X126558139Y-90432255D01*
X131251861Y-90432255D01*
X132080000Y-91260395D01*
X132908139Y-90432255D01*
X137601861Y-90432255D01*
X138430000Y-91260395D01*
X139258139Y-90432255D01*
X139184005Y-90186136D01*
X138646777Y-89993035D01*
X138076546Y-90020222D01*
X137675995Y-90186136D01*
X137601861Y-90432255D01*
X132908139Y-90432255D01*
X132834005Y-90186136D01*
X132296777Y-89993035D01*
X131726546Y-90020222D01*
X131325995Y-90186136D01*
X131251861Y-90432255D01*
X126558139Y-90432255D01*
X126484005Y-90186136D01*
X125946777Y-89993035D01*
X125376546Y-90020222D01*
X124975995Y-90186136D01*
X124901861Y-90432255D01*
X121762641Y-90432255D01*
X121720625Y-90369375D01*
X121422239Y-90170000D01*
X121720625Y-89970625D01*
X122048839Y-89479418D01*
X122164092Y-88900000D01*
X122108589Y-88620963D01*
X141705000Y-88620963D01*
X141705000Y-89339037D01*
X141979795Y-90002450D01*
X142487550Y-90510205D01*
X143150963Y-90785000D01*
X143869037Y-90785000D01*
X144532450Y-90510205D01*
X145040205Y-90002450D01*
X145315000Y-89339037D01*
X145315000Y-88620963D01*
X145040205Y-87957550D01*
X144532450Y-87449795D01*
X143869037Y-87175000D01*
X143150963Y-87175000D01*
X142487550Y-87449795D01*
X141979795Y-87957550D01*
X141705000Y-88620963D01*
X122108589Y-88620963D01*
X122048839Y-88320582D01*
X121720625Y-87829375D01*
X121422239Y-87630000D01*
X121720625Y-87430625D01*
X121928178Y-87120000D01*
X144465199Y-87120000D01*
X151809673Y-94464476D01*
X151852071Y-94527929D01*
X151915524Y-94570327D01*
X151915526Y-94570329D01*
X152040902Y-94654102D01*
X152103463Y-94695904D01*
X152325148Y-94740000D01*
X152325152Y-94740000D01*
X152399999Y-94754888D01*
X152474846Y-94740000D01*
X154865153Y-94740000D01*
X154940000Y-94754888D01*
X155014847Y-94740000D01*
X155014852Y-94740000D01*
X155236537Y-94695904D01*
X155487929Y-94527929D01*
X155530331Y-94464470D01*
X156694473Y-93300329D01*
X156720000Y-93283272D01*
X156720001Y-106605148D01*
X156705112Y-106680000D01*
X156720001Y-106754852D01*
X156764097Y-106976537D01*
X156932072Y-107227929D01*
X156995528Y-107270329D01*
X158578791Y-108853593D01*
X158505908Y-109220000D01*
X158621161Y-109799418D01*
X158949375Y-110290625D01*
X159268478Y-110503843D01*
X159138642Y-110564817D01*
X158748355Y-110993076D01*
X158578524Y-111403110D01*
X158699845Y-111633000D01*
X159893000Y-111633000D01*
X159893000Y-111613000D01*
X160147000Y-111613000D01*
X160147000Y-111633000D01*
X161340155Y-111633000D01*
X161461476Y-111403110D01*
X161291645Y-110993076D01*
X160901358Y-110564817D01*
X160771522Y-110503843D01*
X161090625Y-110290625D01*
X161418839Y-109799418D01*
X161534092Y-109220000D01*
X161418839Y-108640582D01*
X161090625Y-108149375D01*
X160792239Y-107950000D01*
X161090625Y-107750625D01*
X161418839Y-107259418D01*
X161534092Y-106680000D01*
X161418839Y-106100582D01*
X161090625Y-105609375D01*
X160792239Y-105410000D01*
X161090625Y-105210625D01*
X161418839Y-104719418D01*
X161534092Y-104140000D01*
X161418839Y-103560582D01*
X161090625Y-103069375D01*
X160792239Y-102870000D01*
X161090625Y-102670625D01*
X161418839Y-102179418D01*
X161534092Y-101600000D01*
X161418839Y-101020582D01*
X161090625Y-100529375D01*
X160792239Y-100330000D01*
X161090625Y-100130625D01*
X161418839Y-99639418D01*
X161534092Y-99060000D01*
X161418839Y-98480582D01*
X161090625Y-97989375D01*
X160792239Y-97790000D01*
X161090625Y-97590625D01*
X161418839Y-97099418D01*
X161534092Y-96520000D01*
X161418839Y-95940582D01*
X161090625Y-95449375D01*
X160792239Y-95250000D01*
X161090625Y-95050625D01*
X161418839Y-94559418D01*
X161534092Y-93980000D01*
X161418839Y-93400582D01*
X161090625Y-92909375D01*
X160792239Y-92710000D01*
X161090625Y-92510625D01*
X161418839Y-92019418D01*
X161534092Y-91440000D01*
X161418839Y-90860582D01*
X161090625Y-90369375D01*
X160792239Y-90170000D01*
X161090625Y-89970625D01*
X161418839Y-89479418D01*
X161534092Y-88900000D01*
X161418839Y-88320582D01*
X161090625Y-87829375D01*
X160792239Y-87630000D01*
X161090625Y-87430625D01*
X161418839Y-86939418D01*
X161534092Y-86360000D01*
X161418839Y-85780582D01*
X161090625Y-85289375D01*
X160792239Y-85090000D01*
X161090625Y-84890625D01*
X161418839Y-84399418D01*
X161534092Y-83820000D01*
X161418839Y-83240582D01*
X161090625Y-82749375D01*
X160792239Y-82550000D01*
X161090625Y-82350625D01*
X161418839Y-81859418D01*
X161534092Y-81280000D01*
X161418839Y-80700582D01*
X161090625Y-80209375D01*
X160792239Y-80010000D01*
X161090625Y-79810625D01*
X161418839Y-79319418D01*
X161534092Y-78740000D01*
X161418839Y-78160582D01*
X161090625Y-77669375D01*
X160792239Y-77470000D01*
X161090625Y-77270625D01*
X161418839Y-76779418D01*
X161534092Y-76200000D01*
X161418839Y-75620582D01*
X161090625Y-75129375D01*
X161068967Y-75114904D01*
X161229698Y-75048327D01*
X161408327Y-74869699D01*
X161505000Y-74636310D01*
X161505000Y-73945750D01*
X161346250Y-73787000D01*
X160147000Y-73787000D01*
X160147000Y-73807000D01*
X159893000Y-73807000D01*
X159893000Y-73787000D01*
X158693750Y-73787000D01*
X158535000Y-73945750D01*
X158535000Y-74636310D01*
X158631673Y-74869699D01*
X158810302Y-75048327D01*
X158971033Y-75114904D01*
X158949375Y-75129375D01*
X158621161Y-75620582D01*
X158505908Y-76200000D01*
X158621161Y-76779418D01*
X158949375Y-77270625D01*
X159247761Y-77470000D01*
X158949375Y-77669375D01*
X158621161Y-78160582D01*
X158505908Y-78740000D01*
X158578791Y-79106407D01*
X154455530Y-83229669D01*
X154392071Y-83272071D01*
X154224096Y-83523464D01*
X154180000Y-83745149D01*
X154180000Y-83745153D01*
X154165112Y-83820000D01*
X154180000Y-83894847D01*
X154180001Y-89735197D01*
X154131487Y-89783711D01*
X153869037Y-89675000D01*
X153150963Y-89675000D01*
X152487550Y-89949795D01*
X151979795Y-90457550D01*
X151705000Y-91120963D01*
X151705000Y-91839037D01*
X151967450Y-92472648D01*
X145370331Y-85875530D01*
X145327929Y-85812071D01*
X145076537Y-85644096D01*
X144854852Y-85600000D01*
X144854847Y-85600000D01*
X144780000Y-85585112D01*
X144705153Y-85600000D01*
X121928178Y-85600000D01*
X121720625Y-85289375D01*
X121422239Y-85090000D01*
X121720625Y-84890625D01*
X122048839Y-84399418D01*
X122164092Y-83820000D01*
X149666887Y-83820000D01*
X149778260Y-84379909D01*
X150095423Y-84854577D01*
X150570091Y-85171740D01*
X150988667Y-85255000D01*
X151271333Y-85255000D01*
X151689909Y-85171740D01*
X152164577Y-84854577D01*
X152481740Y-84379909D01*
X152593113Y-83820000D01*
X152481740Y-83260091D01*
X152164577Y-82785423D01*
X151689909Y-82468260D01*
X151271333Y-82385000D01*
X150988667Y-82385000D01*
X150570091Y-82468260D01*
X150095423Y-82785423D01*
X149778260Y-83260091D01*
X149666887Y-83820000D01*
X122164092Y-83820000D01*
X122048839Y-83240582D01*
X121720625Y-82749375D01*
X121422239Y-82550000D01*
X121720625Y-82350625D01*
X122048839Y-81859418D01*
X122164092Y-81280000D01*
X124266887Y-81280000D01*
X124378260Y-81839909D01*
X124695423Y-82314577D01*
X125170091Y-82631740D01*
X125588667Y-82715000D01*
X125871333Y-82715000D01*
X126289909Y-82631740D01*
X126764577Y-82314577D01*
X127081740Y-81839909D01*
X127193113Y-81280000D01*
X130616887Y-81280000D01*
X130728260Y-81839909D01*
X131045423Y-82314577D01*
X131520091Y-82631740D01*
X131938667Y-82715000D01*
X132221333Y-82715000D01*
X132639909Y-82631740D01*
X133114577Y-82314577D01*
X133431740Y-81839909D01*
X133543113Y-81280000D01*
X136966887Y-81280000D01*
X137078260Y-81839909D01*
X137395423Y-82314577D01*
X137870091Y-82631740D01*
X138288667Y-82715000D01*
X138571333Y-82715000D01*
X138989909Y-82631740D01*
X139464577Y-82314577D01*
X139781740Y-81839909D01*
X139893113Y-81280000D01*
X139781740Y-80720091D01*
X139464577Y-80245423D01*
X138989909Y-79928260D01*
X138571333Y-79845000D01*
X138288667Y-79845000D01*
X137870091Y-79928260D01*
X137395423Y-80245423D01*
X137078260Y-80720091D01*
X136966887Y-81280000D01*
X133543113Y-81280000D01*
X133431740Y-80720091D01*
X133114577Y-80245423D01*
X132639909Y-79928260D01*
X132221333Y-79845000D01*
X131938667Y-79845000D01*
X131520091Y-79928260D01*
X131045423Y-80245423D01*
X130728260Y-80720091D01*
X130616887Y-81280000D01*
X127193113Y-81280000D01*
X127081740Y-80720091D01*
X126764577Y-80245423D01*
X126289909Y-79928260D01*
X125871333Y-79845000D01*
X125588667Y-79845000D01*
X125170091Y-79928260D01*
X124695423Y-80245423D01*
X124378260Y-80720091D01*
X124266887Y-81280000D01*
X122164092Y-81280000D01*
X122048839Y-80700582D01*
X121720625Y-80209375D01*
X121422239Y-80010000D01*
X121720625Y-79810625D01*
X122048839Y-79319418D01*
X122164092Y-78740000D01*
X122048839Y-78160582D01*
X121831144Y-77834778D01*
X138065000Y-77834778D01*
X138065000Y-78485222D01*
X138313914Y-79086153D01*
X138773847Y-79546086D01*
X139374778Y-79795000D01*
X140025222Y-79795000D01*
X140626153Y-79546086D01*
X141086086Y-79086153D01*
X141335000Y-78485222D01*
X141335000Y-77834778D01*
X144565000Y-77834778D01*
X144565000Y-78485222D01*
X144813914Y-79086153D01*
X145273847Y-79546086D01*
X145874778Y-79795000D01*
X146525222Y-79795000D01*
X147126153Y-79546086D01*
X147586086Y-79086153D01*
X147835000Y-78485222D01*
X147835000Y-77834778D01*
X147586086Y-77233847D01*
X147126153Y-76773914D01*
X146525222Y-76525000D01*
X145874778Y-76525000D01*
X145273847Y-76773914D01*
X144813914Y-77233847D01*
X144565000Y-77834778D01*
X141335000Y-77834778D01*
X141086086Y-77233847D01*
X140626153Y-76773914D01*
X140025222Y-76525000D01*
X139374778Y-76525000D01*
X138773847Y-76773914D01*
X138313914Y-77233847D01*
X138065000Y-77834778D01*
X121831144Y-77834778D01*
X121720625Y-77669375D01*
X121401522Y-77456157D01*
X121531358Y-77395183D01*
X121921645Y-76966924D01*
X122091476Y-76556890D01*
X121970155Y-76327000D01*
X120777000Y-76327000D01*
X120777000Y-76347000D01*
X120523000Y-76347000D01*
X120523000Y-76327000D01*
X119329845Y-76327000D01*
X119208524Y-76556890D01*
X119378355Y-76966924D01*
X119768642Y-77395183D01*
X119898478Y-77456157D01*
X119579375Y-77669375D01*
X119251161Y-78160582D01*
X119135908Y-78740000D01*
X112470000Y-78740000D01*
X112470000Y-72810000D01*
X119152560Y-72810000D01*
X119152560Y-74510000D01*
X119201843Y-74757765D01*
X119342191Y-74967809D01*
X119552235Y-75108157D01*
X119655708Y-75128739D01*
X119378355Y-75433076D01*
X119208524Y-75843110D01*
X119329845Y-76073000D01*
X120523000Y-76073000D01*
X120523000Y-76053000D01*
X120777000Y-76053000D01*
X120777000Y-76073000D01*
X121970155Y-76073000D01*
X122091476Y-75843110D01*
X121921645Y-75433076D01*
X121644292Y-75128739D01*
X121747765Y-75108157D01*
X121957809Y-74967809D01*
X122098157Y-74757765D01*
X122147440Y-74510000D01*
X122147440Y-73374561D01*
X125565000Y-73374561D01*
X125565000Y-73945439D01*
X125783466Y-74472862D01*
X126187138Y-74876534D01*
X126316216Y-74930000D01*
X126187138Y-74983466D01*
X125783466Y-75387138D01*
X125565000Y-75914561D01*
X125565000Y-76485439D01*
X125783466Y-77012862D01*
X126187138Y-77416534D01*
X126714561Y-77635000D01*
X127285439Y-77635000D01*
X127812862Y-77416534D01*
X128216534Y-77012862D01*
X128435000Y-76485439D01*
X128435000Y-75914561D01*
X128216534Y-75387138D01*
X127812862Y-74983466D01*
X127683784Y-74930000D01*
X127812862Y-74876534D01*
X128216534Y-74472862D01*
X128435000Y-73945439D01*
X128435000Y-73374561D01*
X133185000Y-73374561D01*
X133185000Y-73945439D01*
X133403466Y-74472862D01*
X133807138Y-74876534D01*
X133936216Y-74930000D01*
X133807138Y-74983466D01*
X133403466Y-75387138D01*
X133185000Y-75914561D01*
X133185000Y-76485439D01*
X133403466Y-77012862D01*
X133807138Y-77416534D01*
X134334561Y-77635000D01*
X134905439Y-77635000D01*
X135432862Y-77416534D01*
X135836534Y-77012862D01*
X136055000Y-76485439D01*
X136055000Y-75914561D01*
X135836534Y-75387138D01*
X135432862Y-74983466D01*
X135303784Y-74930000D01*
X135432862Y-74876534D01*
X135836534Y-74472862D01*
X136055000Y-73945439D01*
X136055000Y-73374561D01*
X136038522Y-73334778D01*
X138065000Y-73334778D01*
X138065000Y-73985222D01*
X138313914Y-74586153D01*
X138773847Y-75046086D01*
X139374778Y-75295000D01*
X140025222Y-75295000D01*
X140626153Y-75046086D01*
X141086086Y-74586153D01*
X141335000Y-73985222D01*
X141335000Y-73334778D01*
X144565000Y-73334778D01*
X144565000Y-73985222D01*
X144813914Y-74586153D01*
X145273847Y-75046086D01*
X145874778Y-75295000D01*
X146525222Y-75295000D01*
X147126153Y-75046086D01*
X147586086Y-74586153D01*
X147835000Y-73985222D01*
X147835000Y-73374561D01*
X149695000Y-73374561D01*
X149695000Y-73945439D01*
X149913466Y-74472862D01*
X150317138Y-74876534D01*
X150844561Y-75095000D01*
X151415439Y-75095000D01*
X151942862Y-74876534D01*
X152346534Y-74472862D01*
X152565000Y-73945439D01*
X152565000Y-73374561D01*
X152346534Y-72847138D01*
X152183086Y-72683690D01*
X158535000Y-72683690D01*
X158535000Y-73374250D01*
X158693750Y-73533000D01*
X159893000Y-73533000D01*
X159893000Y-72333750D01*
X160147000Y-72333750D01*
X160147000Y-73533000D01*
X161346250Y-73533000D01*
X161505000Y-73374250D01*
X161505000Y-72683690D01*
X161408327Y-72450301D01*
X161229698Y-72271673D01*
X160996309Y-72175000D01*
X160305750Y-72175000D01*
X160147000Y-72333750D01*
X159893000Y-72333750D01*
X159734250Y-72175000D01*
X159043691Y-72175000D01*
X158810302Y-72271673D01*
X158631673Y-72450301D01*
X158535000Y-72683690D01*
X152183086Y-72683690D01*
X151942862Y-72443466D01*
X151415439Y-72225000D01*
X150844561Y-72225000D01*
X150317138Y-72443466D01*
X149913466Y-72847138D01*
X149695000Y-73374561D01*
X147835000Y-73374561D01*
X147835000Y-73334778D01*
X147586086Y-72733847D01*
X147126153Y-72273914D01*
X146525222Y-72025000D01*
X145874778Y-72025000D01*
X145273847Y-72273914D01*
X144813914Y-72733847D01*
X144565000Y-73334778D01*
X141335000Y-73334778D01*
X141086086Y-72733847D01*
X140626153Y-72273914D01*
X140025222Y-72025000D01*
X139374778Y-72025000D01*
X138773847Y-72273914D01*
X138313914Y-72733847D01*
X138065000Y-73334778D01*
X136038522Y-73334778D01*
X135836534Y-72847138D01*
X135432862Y-72443466D01*
X134905439Y-72225000D01*
X134334561Y-72225000D01*
X133807138Y-72443466D01*
X133403466Y-72847138D01*
X133185000Y-73374561D01*
X128435000Y-73374561D01*
X128216534Y-72847138D01*
X127812862Y-72443466D01*
X127285439Y-72225000D01*
X126714561Y-72225000D01*
X126187138Y-72443466D01*
X125783466Y-72847138D01*
X125565000Y-73374561D01*
X122147440Y-73374561D01*
X122147440Y-72810000D01*
X122098157Y-72562235D01*
X121957809Y-72352191D01*
X121747765Y-72211843D01*
X121500000Y-72162560D01*
X119800000Y-72162560D01*
X119552235Y-72211843D01*
X119342191Y-72352191D01*
X119201843Y-72562235D01*
X119152560Y-72810000D01*
X112470000Y-72810000D01*
X112470000Y-70560000D01*
X161850000Y-70560000D01*
X161850001Y-119940000D01*
G04 #@! TD*
M02*
