G04 #@! TF.GenerationSoftware,KiCad,Pcbnew,(5.0.1)-4*
G04 #@! TF.CreationDate,2018-12-10T10:09:48+10:00*
G04 #@! TF.ProjectId,timer,74696D65722E6B696361645F70636200,rev?*
G04 #@! TF.SameCoordinates,Original*
G04 #@! TF.FileFunction,Copper,L1,Top,Signal*
G04 #@! TF.FilePolarity,Positive*
%FSLAX46Y46*%
G04 Gerber Fmt 4.6, Leading zero omitted, Abs format (unit mm)*
G04 Created by KiCad (PCBNEW (5.0.1)-4) date 10-Dec-18 10:09:48 AM*
%MOMM*%
%LPD*%
G01*
G04 APERTURE LIST*
G04 #@! TA.AperFunction,ComponentPad*
%ADD10C,1.600000*%
G04 #@! TD*
G04 #@! TA.AperFunction,ComponentPad*
%ADD11O,1.600000X1.600000*%
G04 #@! TD*
G04 #@! TA.AperFunction,ComponentPad*
%ADD12C,2.340000*%
G04 #@! TD*
G04 #@! TA.AperFunction,ComponentPad*
%ADD13C,2.000000*%
G04 #@! TD*
G04 #@! TA.AperFunction,ComponentPad*
%ADD14R,1.700000X1.700000*%
G04 #@! TD*
G04 #@! TA.AperFunction,ComponentPad*
%ADD15O,1.700000X1.700000*%
G04 #@! TD*
G04 #@! TA.AperFunction,Conductor*
%ADD16C,0.250000*%
G04 #@! TD*
G04 APERTURE END LIST*
D10*
G04 #@! TO.P,R1,2*
G04 #@! TO.N,Net-(R1-Pad2)*
X134620000Y-76200000D03*
G04 #@! TO.P,R1,1*
G04 #@! TO.N,Net-(R1-Pad1)*
X134620000Y-73660000D03*
G04 #@! TD*
D11*
G04 #@! TO.P,R2,2*
G04 #@! TO.N,Net-(R1-Pad2)*
X132080000Y-81280000D03*
D10*
G04 #@! TO.P,R2,1*
G04 #@! TO.N,Net-(R2-Pad1)*
X132080000Y-91440000D03*
G04 #@! TD*
G04 #@! TO.P,R3,1*
G04 #@! TO.N,Net-(R1-Pad1)*
X127000000Y-73660000D03*
G04 #@! TO.P,R3,2*
G04 #@! TO.N,Net-(R3-Pad2)*
X127000000Y-76200000D03*
G04 #@! TD*
G04 #@! TO.P,R4,1*
G04 #@! TO.N,Net-(R2-Pad1)*
X125730000Y-91440000D03*
D11*
G04 #@! TO.P,R4,2*
G04 #@! TO.N,Net-(R3-Pad2)*
X125730000Y-81280000D03*
G04 #@! TD*
D10*
G04 #@! TO.P,R5,1*
G04 #@! TO.N,Net-(R5-Pad1)*
X151130000Y-73660000D03*
D11*
G04 #@! TO.P,R5,2*
G04 #@! TO.N,Net-(R1-Pad1)*
X151130000Y-83820000D03*
G04 #@! TD*
G04 #@! TO.P,R6,2*
G04 #@! TO.N,Net-(R6-Pad2)*
X138430000Y-81280000D03*
D10*
G04 #@! TO.P,R6,1*
G04 #@! TO.N,Net-(R2-Pad1)*
X138430000Y-91440000D03*
G04 #@! TD*
D12*
G04 #@! TO.P,RV1,3*
G04 #@! TO.N,Net-(R1-Pad1)*
X143510000Y-88980000D03*
G04 #@! TO.P,RV1,2*
G04 #@! TO.N,Net-(RV1-Pad2)*
X153510000Y-91480000D03*
G04 #@! TO.P,RV1,1*
G04 #@! TO.N,Net-(R2-Pad1)*
X143510000Y-93980000D03*
G04 #@! TD*
D13*
G04 #@! TO.P,SW1,2*
G04 #@! TO.N,Net-(R6-Pad2)*
X139700000Y-78160000D03*
G04 #@! TO.P,SW1,1*
G04 #@! TO.N,Net-(R1-Pad1)*
X139700000Y-73660000D03*
G04 #@! TO.P,SW1,2*
G04 #@! TO.N,Net-(R6-Pad2)*
X146200000Y-78160000D03*
G04 #@! TO.P,SW1,1*
G04 #@! TO.N,Net-(R1-Pad1)*
X146200000Y-73660000D03*
G04 #@! TD*
D14*
G04 #@! TO.P,U1,1*
G04 #@! TO.N,Net-(R1-Pad1)*
X120650000Y-73660000D03*
D15*
G04 #@! TO.P,U1,2*
G04 #@! TO.N,Net-(R2-Pad1)*
X120650000Y-76200000D03*
G04 #@! TO.P,U1,3*
G04 #@! TO.N,Net-(R3-Pad2)*
X120650000Y-78740000D03*
G04 #@! TO.P,U1,4*
G04 #@! TO.N,Net-(R1-Pad2)*
X120650000Y-81280000D03*
G04 #@! TO.P,U1,5*
G04 #@! TO.N,Net-(R6-Pad2)*
X120650000Y-83820000D03*
G04 #@! TO.P,U1,6*
G04 #@! TO.N,Net-(U1-Pad6)*
X120650000Y-86360000D03*
G04 #@! TO.P,U1,7*
G04 #@! TO.N,Net-(U1-Pad7)*
X120650000Y-88900000D03*
G04 #@! TO.P,U1,8*
G04 #@! TO.N,Net-(U1-Pad8)*
X120650000Y-91440000D03*
G04 #@! TO.P,U1,9*
G04 #@! TO.N,Net-(U1-Pad9)*
X120650000Y-93980000D03*
G04 #@! TO.P,U1,10*
G04 #@! TO.N,Net-(U1-Pad10)*
X120650000Y-96520000D03*
G04 #@! TO.P,U1,11*
G04 #@! TO.N,Net-(U1-Pad11)*
X120650000Y-99060000D03*
G04 #@! TD*
D14*
G04 #@! TO.P,U2,1*
G04 #@! TO.N,Net-(R2-Pad1)*
X160020000Y-73660000D03*
D15*
G04 #@! TO.P,U2,2*
G04 #@! TO.N,Net-(R5-Pad1)*
X160020000Y-76200000D03*
G04 #@! TO.P,U2,3*
G04 #@! TO.N,Net-(RV1-Pad2)*
X160020000Y-78740000D03*
G04 #@! TO.P,U2,4*
G04 #@! TO.N,Net-(U1-Pad6)*
X160020000Y-81280000D03*
G04 #@! TO.P,U2,5*
G04 #@! TO.N,Net-(R1-Pad1)*
X160020000Y-83820000D03*
G04 #@! TO.P,U2,6*
G04 #@! TO.N,Net-(U1-Pad7)*
X160020000Y-86360000D03*
G04 #@! TO.P,U2,7*
G04 #@! TO.N,Net-(U2-Pad7)*
X160020000Y-88900000D03*
G04 #@! TO.P,U2,8*
G04 #@! TO.N,Net-(U2-Pad8)*
X160020000Y-91440000D03*
G04 #@! TO.P,U2,9*
G04 #@! TO.N,Net-(U2-Pad9)*
X160020000Y-93980000D03*
G04 #@! TO.P,U2,10*
G04 #@! TO.N,Net-(U2-Pad10)*
X160020000Y-96520000D03*
G04 #@! TO.P,U2,11*
G04 #@! TO.N,Net-(U1-Pad8)*
X160020000Y-99060000D03*
G04 #@! TO.P,U2,12*
G04 #@! TO.N,Net-(U1-Pad9)*
X160020000Y-101600000D03*
G04 #@! TO.P,U2,13*
G04 #@! TO.N,Net-(U1-Pad10)*
X160020000Y-104140000D03*
G04 #@! TO.P,U2,14*
G04 #@! TO.N,Net-(U1-Pad11)*
X160020000Y-106680000D03*
G04 #@! TO.P,U2,15*
G04 #@! TO.N,Net-(R1-Pad1)*
X160020000Y-109220000D03*
G04 #@! TO.P,U2,16*
G04 #@! TO.N,Net-(R2-Pad1)*
X160020000Y-111760000D03*
G04 #@! TD*
D16*
G04 #@! TO.N,Net-(R1-Pad2)*
X134620000Y-78740000D02*
X132080000Y-81280000D01*
X134620000Y-76200000D02*
X134620000Y-78740000D01*
X132080000Y-81280000D02*
X129540000Y-83820000D01*
X129540000Y-83820000D02*
X123190000Y-83820000D01*
X123190000Y-83820000D02*
X120650000Y-81280000D01*
G04 #@! TO.N,Net-(R1-Pad1)*
X120650000Y-73660000D02*
X127000000Y-73660000D01*
X127000000Y-73660000D02*
X134620000Y-73660000D01*
X134620000Y-73660000D02*
X139700000Y-73660000D01*
X151130000Y-78590000D02*
X151130000Y-83820000D01*
X146200000Y-73660000D02*
X151130000Y-78590000D01*
X148670000Y-83820000D02*
X143510000Y-88980000D01*
X151130000Y-83820000D02*
X148670000Y-83820000D01*
X151130000Y-83820000D02*
X160020000Y-83820000D01*
G04 #@! TO.N,Net-(R3-Pad2)*
X124460000Y-78740000D02*
X127000000Y-76200000D01*
X120650000Y-78740000D02*
X124460000Y-78740000D01*
X124460000Y-78740000D02*
X125730000Y-80010000D01*
X125730000Y-80010000D02*
X125730000Y-81280000D01*
G04 #@! TO.N,Net-(R5-Pad1)*
X151130000Y-73660000D02*
X153670000Y-73660000D01*
X156210000Y-76200000D02*
X160020000Y-76200000D01*
X153670000Y-73660000D02*
X156210000Y-76200000D01*
G04 #@! TO.N,Net-(R6-Pad2)*
X139700000Y-80010000D02*
X138430000Y-81280000D01*
X139700000Y-78160000D02*
X139700000Y-80010000D01*
X138430000Y-81280000D02*
X133350000Y-86360000D01*
X123190000Y-86360000D02*
X120650000Y-83820000D01*
X133350000Y-86360000D02*
X123190000Y-86360000D01*
G04 #@! TO.N,Net-(U1-Pad7)*
X120650000Y-88900000D02*
X139700000Y-88900000D01*
X139700000Y-88900000D02*
X142240000Y-91440000D01*
X142240000Y-91440000D02*
X148590000Y-91440000D01*
X148590000Y-91440000D02*
X153670000Y-86360000D01*
X153670000Y-86360000D02*
X160020000Y-86360000D01*
G04 #@! TO.N,Net-(U1-Pad8)*
X160020000Y-99060000D02*
X142240000Y-99060000D01*
X142240000Y-99060000D02*
X137160000Y-93980000D01*
X123190000Y-93980000D02*
X120650000Y-91440000D01*
X137160000Y-93980000D02*
X123190000Y-93980000D01*
G04 #@! TO.N,Net-(U1-Pad9)*
X120650000Y-93980000D02*
X123190000Y-96520000D01*
X123190000Y-96520000D02*
X137160000Y-96520000D01*
X137160000Y-96520000D02*
X142240000Y-101600000D01*
X142240000Y-101600000D02*
X160020000Y-101600000D01*
G04 #@! TO.N,Net-(U1-Pad10)*
X160020000Y-104140000D02*
X142240000Y-104140000D01*
X142240000Y-104140000D02*
X137160000Y-99060000D01*
X123190000Y-99060000D02*
X120650000Y-96520000D01*
X137160000Y-99060000D02*
X123190000Y-99060000D01*
G04 #@! TO.N,Net-(U1-Pad11)*
X120650000Y-99060000D02*
X123190000Y-101600000D01*
X123190000Y-101600000D02*
X137160000Y-101600000D01*
X137160000Y-101600000D02*
X142240000Y-106680000D01*
X142240000Y-106680000D02*
X160020000Y-106680000D01*
G04 #@! TD*
M02*
