G04 #@! TF.GenerationSoftware,KiCad,Pcbnew,(5.0.1)-4*
G04 #@! TF.CreationDate,2018-12-10T10:09:48+10:00*
G04 #@! TF.ProjectId,timer,74696D65722E6B696361645F70636200,rev?*
G04 #@! TF.SameCoordinates,Original*
G04 #@! TF.FileFunction,Legend,Top*
G04 #@! TF.FilePolarity,Positive*
%FSLAX46Y46*%
G04 Gerber Fmt 4.6, Leading zero omitted, Abs format (unit mm)*
G04 Created by KiCad (PCBNEW (5.0.1)-4) date 10-Dec-18 10:09:48 AM*
%MOMM*%
%LPD*%
G01*
G04 APERTURE LIST*
%ADD10C,0.120000*%
%ADD11C,0.150000*%
G04 APERTURE END LIST*
D10*
G04 #@! TO.C,R1*
X132487856Y-76288027D02*
G75*
G03X136770000Y-76260000I2132144J1378027D01*
G01*
X136754388Y-73584524D02*
G75*
G03X132470000Y-73610000I-2134388J-1325476D01*
G01*
X136770000Y-73610000D02*
X136770000Y-76260000D01*
X132470000Y-73610000D02*
X132470000Y-76260000D01*
G04 #@! TO.C,R2*
X132080000Y-82320000D02*
X132080000Y-83090000D01*
X132080000Y-90400000D02*
X132080000Y-89630000D01*
X130710000Y-83090000D02*
X130710000Y-89630000D01*
X133450000Y-83090000D02*
X130710000Y-83090000D01*
X133450000Y-89630000D02*
X133450000Y-83090000D01*
X130710000Y-89630000D02*
X133450000Y-89630000D01*
G04 #@! TO.C,R3*
X124850000Y-73610000D02*
X124850000Y-76260000D01*
X129150000Y-73610000D02*
X129150000Y-76260000D01*
X129134388Y-73584524D02*
G75*
G03X124850000Y-73610000I-2134388J-1325476D01*
G01*
X124867856Y-76288027D02*
G75*
G03X129150000Y-76260000I2132144J1378027D01*
G01*
G04 #@! TO.C,R4*
X124360000Y-89630000D02*
X127100000Y-89630000D01*
X127100000Y-89630000D02*
X127100000Y-83090000D01*
X127100000Y-83090000D02*
X124360000Y-83090000D01*
X124360000Y-83090000D02*
X124360000Y-89630000D01*
X125730000Y-90400000D02*
X125730000Y-89630000D01*
X125730000Y-82320000D02*
X125730000Y-83090000D01*
G04 #@! TO.C,R5*
X152500000Y-75470000D02*
X149760000Y-75470000D01*
X149760000Y-75470000D02*
X149760000Y-82010000D01*
X149760000Y-82010000D02*
X152500000Y-82010000D01*
X152500000Y-82010000D02*
X152500000Y-75470000D01*
X151130000Y-74700000D02*
X151130000Y-75470000D01*
X151130000Y-82780000D02*
X151130000Y-82010000D01*
G04 #@! TO.C,R6*
X138430000Y-82320000D02*
X138430000Y-83090000D01*
X138430000Y-90400000D02*
X138430000Y-89630000D01*
X137060000Y-83090000D02*
X137060000Y-89630000D01*
X139800000Y-83090000D02*
X137060000Y-83090000D01*
X139800000Y-89630000D02*
X139800000Y-83090000D01*
X137060000Y-89630000D02*
X139800000Y-89630000D01*
G04 #@! TO.C,RV1*
X143390000Y-86459000D02*
X153630000Y-86459000D01*
X143390000Y-96500000D02*
X153630000Y-96500000D01*
X143390000Y-86459000D02*
X143390000Y-87554000D01*
X143390000Y-90406000D02*
X143390000Y-92555000D01*
X143390000Y-95405000D02*
X143390000Y-96500000D01*
X153630000Y-86459000D02*
X153630000Y-90055000D01*
X153630000Y-92905000D02*
X153630000Y-96500000D01*
G04 #@! TO.C,SW1*
X140700000Y-79160000D02*
X145200000Y-79160000D01*
X139450000Y-75160000D02*
X139450000Y-76660000D01*
X145200000Y-72660000D02*
X140700000Y-72660000D01*
X146450000Y-76660000D02*
X146450000Y-75160000D01*
G04 #@! TO.C,U1*
X119320000Y-100390000D02*
X121980000Y-100390000D01*
X119320000Y-74930000D02*
X119320000Y-100390000D01*
X121980000Y-74930000D02*
X121980000Y-100390000D01*
X119320000Y-74930000D02*
X121980000Y-74930000D01*
X119320000Y-73660000D02*
X119320000Y-72330000D01*
X119320000Y-72330000D02*
X120650000Y-72330000D01*
G04 #@! TO.C,U2*
X158690000Y-74930000D02*
X161350000Y-74930000D01*
X158690000Y-74930000D02*
X158690000Y-113090000D01*
X158690000Y-113090000D02*
X161350000Y-113090000D01*
X161350000Y-74930000D02*
X161350000Y-113090000D01*
X161350000Y-72330000D02*
X161350000Y-73660000D01*
X160020000Y-72330000D02*
X161350000Y-72330000D01*
G04 #@! TO.C,R1*
D11*
X137972380Y-75096666D02*
X137496190Y-75430000D01*
X137972380Y-75668095D02*
X136972380Y-75668095D01*
X136972380Y-75287142D01*
X137020000Y-75191904D01*
X137067619Y-75144285D01*
X137162857Y-75096666D01*
X137305714Y-75096666D01*
X137400952Y-75144285D01*
X137448571Y-75191904D01*
X137496190Y-75287142D01*
X137496190Y-75668095D01*
X137972380Y-74144285D02*
X137972380Y-74715714D01*
X137972380Y-74430000D02*
X136972380Y-74430000D01*
X137115238Y-74525238D01*
X137210476Y-74620476D01*
X137258095Y-74715714D01*
G04 #@! TO.C,R2*
X130162380Y-86526666D02*
X129686190Y-86860000D01*
X130162380Y-87098095D02*
X129162380Y-87098095D01*
X129162380Y-86717142D01*
X129210000Y-86621904D01*
X129257619Y-86574285D01*
X129352857Y-86526666D01*
X129495714Y-86526666D01*
X129590952Y-86574285D01*
X129638571Y-86621904D01*
X129686190Y-86717142D01*
X129686190Y-87098095D01*
X129257619Y-86145714D02*
X129210000Y-86098095D01*
X129162380Y-86002857D01*
X129162380Y-85764761D01*
X129210000Y-85669523D01*
X129257619Y-85621904D01*
X129352857Y-85574285D01*
X129448095Y-85574285D01*
X129590952Y-85621904D01*
X130162380Y-86193333D01*
X130162380Y-85574285D01*
G04 #@! TO.C,R3*
X130352380Y-75096666D02*
X129876190Y-75430000D01*
X130352380Y-75668095D02*
X129352380Y-75668095D01*
X129352380Y-75287142D01*
X129400000Y-75191904D01*
X129447619Y-75144285D01*
X129542857Y-75096666D01*
X129685714Y-75096666D01*
X129780952Y-75144285D01*
X129828571Y-75191904D01*
X129876190Y-75287142D01*
X129876190Y-75668095D01*
X129352380Y-74763333D02*
X129352380Y-74144285D01*
X129733333Y-74477619D01*
X129733333Y-74334761D01*
X129780952Y-74239523D01*
X129828571Y-74191904D01*
X129923809Y-74144285D01*
X130161904Y-74144285D01*
X130257142Y-74191904D01*
X130304761Y-74239523D01*
X130352380Y-74334761D01*
X130352380Y-74620476D01*
X130304761Y-74715714D01*
X130257142Y-74763333D01*
G04 #@! TO.C,R4*
X123812380Y-86526666D02*
X123336190Y-86860000D01*
X123812380Y-87098095D02*
X122812380Y-87098095D01*
X122812380Y-86717142D01*
X122860000Y-86621904D01*
X122907619Y-86574285D01*
X123002857Y-86526666D01*
X123145714Y-86526666D01*
X123240952Y-86574285D01*
X123288571Y-86621904D01*
X123336190Y-86717142D01*
X123336190Y-87098095D01*
X123145714Y-85669523D02*
X123812380Y-85669523D01*
X122764761Y-85907619D02*
X123479047Y-86145714D01*
X123479047Y-85526666D01*
G04 #@! TO.C,R5*
X153952380Y-78906666D02*
X153476190Y-79240000D01*
X153952380Y-79478095D02*
X152952380Y-79478095D01*
X152952380Y-79097142D01*
X153000000Y-79001904D01*
X153047619Y-78954285D01*
X153142857Y-78906666D01*
X153285714Y-78906666D01*
X153380952Y-78954285D01*
X153428571Y-79001904D01*
X153476190Y-79097142D01*
X153476190Y-79478095D01*
X152952380Y-78001904D02*
X152952380Y-78478095D01*
X153428571Y-78525714D01*
X153380952Y-78478095D01*
X153333333Y-78382857D01*
X153333333Y-78144761D01*
X153380952Y-78049523D01*
X153428571Y-78001904D01*
X153523809Y-77954285D01*
X153761904Y-77954285D01*
X153857142Y-78001904D01*
X153904761Y-78049523D01*
X153952380Y-78144761D01*
X153952380Y-78382857D01*
X153904761Y-78478095D01*
X153857142Y-78525714D01*
G04 #@! TO.C,R6*
X136512380Y-86526666D02*
X136036190Y-86860000D01*
X136512380Y-87098095D02*
X135512380Y-87098095D01*
X135512380Y-86717142D01*
X135560000Y-86621904D01*
X135607619Y-86574285D01*
X135702857Y-86526666D01*
X135845714Y-86526666D01*
X135940952Y-86574285D01*
X135988571Y-86621904D01*
X136036190Y-86717142D01*
X136036190Y-87098095D01*
X135512380Y-85669523D02*
X135512380Y-85860000D01*
X135560000Y-85955238D01*
X135607619Y-86002857D01*
X135750476Y-86098095D01*
X135940952Y-86145714D01*
X136321904Y-86145714D01*
X136417142Y-86098095D01*
X136464761Y-86050476D01*
X136512380Y-85955238D01*
X136512380Y-85764761D01*
X136464761Y-85669523D01*
X136417142Y-85621904D01*
X136321904Y-85574285D01*
X136083809Y-85574285D01*
X135988571Y-85621904D01*
X135940952Y-85669523D01*
X135893333Y-85764761D01*
X135893333Y-85955238D01*
X135940952Y-86050476D01*
X135988571Y-86098095D01*
X136083809Y-86145714D01*
G04 #@! TO.C,RV1*
X147914761Y-85782380D02*
X147581428Y-85306190D01*
X147343333Y-85782380D02*
X147343333Y-84782380D01*
X147724285Y-84782380D01*
X147819523Y-84830000D01*
X147867142Y-84877619D01*
X147914761Y-84972857D01*
X147914761Y-85115714D01*
X147867142Y-85210952D01*
X147819523Y-85258571D01*
X147724285Y-85306190D01*
X147343333Y-85306190D01*
X148200476Y-84782380D02*
X148533809Y-85782380D01*
X148867142Y-84782380D01*
X149724285Y-85782380D02*
X149152857Y-85782380D01*
X149438571Y-85782380D02*
X149438571Y-84782380D01*
X149343333Y-84925238D01*
X149248095Y-85020476D01*
X149152857Y-85068095D01*
G04 #@! TO.C,SW1*
X141616666Y-72064761D02*
X141759523Y-72112380D01*
X141997619Y-72112380D01*
X142092857Y-72064761D01*
X142140476Y-72017142D01*
X142188095Y-71921904D01*
X142188095Y-71826666D01*
X142140476Y-71731428D01*
X142092857Y-71683809D01*
X141997619Y-71636190D01*
X141807142Y-71588571D01*
X141711904Y-71540952D01*
X141664285Y-71493333D01*
X141616666Y-71398095D01*
X141616666Y-71302857D01*
X141664285Y-71207619D01*
X141711904Y-71160000D01*
X141807142Y-71112380D01*
X142045238Y-71112380D01*
X142188095Y-71160000D01*
X142521428Y-71112380D02*
X142759523Y-72112380D01*
X142950000Y-71398095D01*
X143140476Y-72112380D01*
X143378571Y-71112380D01*
X144283333Y-72112380D02*
X143711904Y-72112380D01*
X143997619Y-72112380D02*
X143997619Y-71112380D01*
X143902380Y-71255238D01*
X143807142Y-71350476D01*
X143711904Y-71398095D01*
G04 #@! TO.C,U1*
X119888095Y-70782380D02*
X119888095Y-71591904D01*
X119935714Y-71687142D01*
X119983333Y-71734761D01*
X120078571Y-71782380D01*
X120269047Y-71782380D01*
X120364285Y-71734761D01*
X120411904Y-71687142D01*
X120459523Y-71591904D01*
X120459523Y-70782380D01*
X121459523Y-71782380D02*
X120888095Y-71782380D01*
X121173809Y-71782380D02*
X121173809Y-70782380D01*
X121078571Y-70925238D01*
X120983333Y-71020476D01*
X120888095Y-71068095D01*
G04 #@! TO.C,U2*
X159258095Y-70342380D02*
X159258095Y-71151904D01*
X159305714Y-71247142D01*
X159353333Y-71294761D01*
X159448571Y-71342380D01*
X159639047Y-71342380D01*
X159734285Y-71294761D01*
X159781904Y-71247142D01*
X159829523Y-71151904D01*
X159829523Y-70342380D01*
X160258095Y-70437619D02*
X160305714Y-70390000D01*
X160400952Y-70342380D01*
X160639047Y-70342380D01*
X160734285Y-70390000D01*
X160781904Y-70437619D01*
X160829523Y-70532857D01*
X160829523Y-70628095D01*
X160781904Y-70770952D01*
X160210476Y-71342380D01*
X160829523Y-71342380D01*
G04 #@! TD*
M02*
